HIERARCHY
ROOT root
{
	OFFSET 0.000000 0.000000 0.000000
	CHANNELS 6 Xposition Yposition Zposition Zrotation Yrotation Xrotation
	JOINT lhip
	{
		OFFSET 0.058581 -0.082280 -0.017664
		CHANNELS 3 Zrotation Yrotation Xrotation
		JOINT lknee
		{
			OFFSET 0.043451 -0.386469 0.008037
			CHANNELS 3 Zrotation Yrotation Xrotation
			JOINT lankle
			{
				OFFSET -0.014790 -0.426874 -0.037428
				CHANNELS 3 Zrotation Yrotation Xrotation
				JOINT ltoe
				{
					OFFSET 0.041054 -0.060286 0.122042
					CHANNELS 3 Zrotation Yrotation Xrotation
					End Site
					{
						OFFSET 0.000000 0.000000 0.000000
					}
				}
			}
		}
	}
	JOINT rhip
	{
		OFFSET -0.060310 -0.090513 -0.013543
		CHANNELS 3 Zrotation Yrotation Xrotation
		JOINT rknee
		{
			OFFSET -0.043257 -0.383688 -0.004843
			CHANNELS 3 Zrotation Yrotation Xrotation
			JOINT rankle
			{
				OFFSET 0.019056 -0.420046 -0.034562
				CHANNELS 3 Zrotation Yrotation Xrotation
				JOINT rtoe
				{
					OFFSET -0.034840 -0.062106 0.130323
					CHANNELS 3 Zrotation Yrotation Xrotation
					End Site
					{
						OFFSET 0.000000 0.000000 0.000000
					}
				}
			}
		}
	}
	JOINT lowerback
	{
		OFFSET 0.004439 0.124404 -0.038385
		CHANNELS 3 Zrotation Yrotation Xrotation
		JOINT upperback
		{
			OFFSET 0.004488 0.137956 0.026820
			CHANNELS 3 Zrotation Yrotation Xrotation
			JOINT chest
			{
				OFFSET -0.002265 0.056032 0.002855
				CHANNELS 3 Zrotation Yrotation Xrotation
				JOINT lowerneck
				{
					OFFSET -0.013390 0.211636 -0.033468
					CHANNELS 3 Zrotation Yrotation Xrotation
					JOINT upperneck
					{
						OFFSET 0.010113 0.088937 0.050410
						CHANNELS 3 Zrotation Yrotation Xrotation
						End Site
						{
							OFFSET 0.000000 0.000000 0.000000
						}
					}
				}
				JOINT lclavicle
				{
					OFFSET 0.071702 0.114000 -0.018898
					CHANNELS 3 Zrotation Yrotation Xrotation
					JOINT lshoulder
					{
						OFFSET 0.122921 0.045205 -0.019046
						CHANNELS 3 Zrotation Yrotation Xrotation
						JOINT lelbow
						{
							OFFSET 0.255332 -0.015649 -0.022946
							CHANNELS 3 Zrotation Yrotation Xrotation
							JOINT lwrist
							{
								OFFSET 0.265709 0.012698 -0.007375
								CHANNELS 3 Zrotation Yrotation Xrotation
								End Site
								{
									OFFSET 0.000000 0.000000 0.000000
								}
							}
						}
					}
				}
				JOINT rclavicle
				{
					OFFSET -0.082954 0.112472 -0.023707
					CHANNELS 3 Zrotation Yrotation Xrotation
					JOINT rshoulder
					{
						OFFSET -0.113228 0.046853 -0.008472
						CHANNELS 3 Zrotation Yrotation Xrotation
						JOINT relbow
						{
							OFFSET -0.260127 -0.014369 -0.031269
							CHANNELS 3 Zrotation Yrotation Xrotation
							JOINT rwrist
							{
								OFFSET -0.269108 0.006794 -0.006027
								CHANNELS 3 Zrotation Yrotation Xrotation
								End Site
								{
									OFFSET 0.000000 0.000000 0.000000
								}
							}
						}
					}
				}
			}
		}
	}
}
MOTION
Frames: 16
Frame Time: 0.033333
-1.876967 0.623494 0.997027 -28.440521 -1.145431 85.234371 -2.368022 -1.768111 1.380783 -2.801661 -13.924654 10.443718 1.183540 8.140144 -16.022713 0.000000 -0.000000 0.000000 -6.156663 0.393416 -13.172177 -1.099923 2.943351 32.771526 5.602989 -4.357659 -17.217960 0.000000 -0.000000 0.000000 -2.306394 0.231726 10.294409 1.065663 -3.072998 2.034577 -1.339899 -1.175661 1.842820 3.784226 -3.042723 -11.783786 4.991296 -13.553310 -8.168727 -22.644523 -9.316019 -1.074187 -55.833793 -17.564183 16.452808 -1.100064 -24.842069 16.228205 -6.191231 -1.666369 -3.571257 23.447038 4.740452 -1.476196 63.525471 0.186530 15.680013 -15.504607 22.465856 1.649549 13.033079 -4.181674 0.616532 
-1.885436 0.621813 0.997045 -21.380056 -1.214009 85.888063 -1.513767 -3.383456 -0.144025 -3.869727 -16.982232 11.340649 0.424734 6.332109 -15.793366 0.000000 -0.000000 0.000000 -6.777823 2.292508 -11.909895 0.425431 8.742293 28.042613 6.330845 -0.575608 -18.168213 0.000000 -0.000000 0.000000 -2.274365 -0.055328 9.632485 1.340080 -3.589753 1.837341 -1.236596 -1.158967 1.449964 3.185586 4.927809 -12.686523 2.660931 -6.364160 -7.045197 -22.976513 -9.114386 -1.163023 -54.976096 -16.876208 16.539870 -1.889678 -25.163576 16.978468 -6.895232 -2.152815 -3.526551 23.499480 3.157894 -0.726083 63.671644 -0.257019 16.189523 -15.419952 23.260096 0.991089 13.906898 -3.348387 -2.608587 
-1.895744 0.619286 0.997006 -14.193605 -1.201920 85.966402 -0.612114 -4.997660 -1.233922 -4.979095 -20.156166 12.508148 -0.083494 4.386416 -15.729656 0.000000 -0.000000 0.000000 -7.077800 4.237279 -9.693491 1.309196 13.208106 24.662637 6.773290 1.655944 -19.156992 0.000000 -0.000000 0.000000 -2.042621 0.054929 8.991678 1.465903 -3.990798 2.530805 -1.038313 -1.372055 0.981441 2.312345 13.381056 -13.444374 0.520182 1.309852 -6.851954 -23.181744 -9.583060 -0.513848 -53.493165 -16.165357 16.191356 -2.195059 -26.199871 16.909730 -6.439250 -3.155416 -4.007814 23.445799 2.481514 0.392155 63.422857 0.024664 16.310944 -15.590773 23.319535 -0.347445 12.240299 -2.095411 -5.340287 
-1.907488 0.617715 0.996751 -6.830347 -0.850216 85.120820 0.330140 -6.772330 -1.724524 -5.782560 -23.219381 13.968275 -0.995622 2.812802 -15.384288 0.000000 -0.000000 0.000000 -6.400702 5.765041 -6.138954 0.960017 15.323026 22.632808 7.043917 2.445823 -19.683248 0.000000 -0.000000 0.000000 -1.574614 0.590323 9.721902 1.434856 -4.308587 3.073147 -0.428104 -1.524862 0.555696 1.284407 21.337480 -14.217914 -1.362142 9.351784 -7.216582 -23.144114 -11.228491 0.117104 -52.257652 -15.392041 15.498702 -1.222039 -26.704636 16.330165 -5.356774 -3.867555 -4.378525 22.765899 3.008249 1.443901 63.546358 0.508189 15.793719 -16.660542 22.215770 -1.841866 9.482127 -0.919592 -6.655038 
-1.919056 0.618796 0.995739 0.863190 -0.918424 84.719185 1.152104 -8.633718 -3.609682 -7.714499 -25.781293 16.396119 -1.000102 0.963784 -15.028371 0.000000 -0.000000 0.000000 -5.948578 6.003186 -3.053080 0.901456 15.739245 21.833919 6.379129 1.923529 -20.267842 0.000000 -0.000000 0.000000 -1.612257 0.852548 10.732918 1.598390 -4.702131 2.652978 0.115850 -1.339357 0.485455 0.461133 28.172260 -14.860090 -3.422084 16.677194 -7.592014 -23.093813 -12.123389 0.240650 -51.300692 -14.938560 14.422746 0.059822 -27.208798 15.986385 -5.008278 -4.181092 -4.422996 21.859002 3.354264 2.443437 63.169277 1.047735 15.357114 -17.136099 21.525348 -2.073811 7.698540 -0.308003 -7.000219 
-1.932311 0.619732 0.994335 7.548972 -1.113890 84.490127 1.557833 -10.165943 -5.301083 -8.652811 -27.935736 18.032283 -1.611001 -0.927449 -14.606723 0.000000 -0.000000 0.000000 -5.062706 5.275412 -0.136473 0.142264 14.424829 19.333549 5.412877 0.173088 -19.777308 0.000000 -0.000000 0.000000 -1.451341 2.184839 10.935630 1.340351 -4.447169 2.909812 0.648872 -1.202932 0.254736 -0.601745 33.212590 -14.923689 -4.559468 22.368566 -7.810686 -22.628344 -13.405825 0.459176 -50.380753 -14.979175 13.448482 1.336942 -26.872913 14.503201 -4.656254 -4.547156 -4.625136 20.853472 3.840696 3.613818 62.511306 1.007261 14.410668 -18.220746 21.621390 -2.791101 7.994608 0.052836 -8.385232 
-1.946410 0.623919 0.993275 13.760424 -1.245248 85.333127 2.627143 -11.309415 -8.752169 -10.130803 -28.766000 19.709934 -2.917132 -3.321845 -13.042658 0.000000 -0.000000 0.000000 -4.496115 2.676737 0.788547 -0.323279 11.633179 17.141251 4.561261 -1.365702 -20.523450 0.000000 -0.000000 0.000000 -1.022934 3.750867 10.838375 0.960413 -4.357975 2.396168 0.872458 -0.883664 0.040997 -1.327714 35.936098 -14.945665 -5.158803 25.637835 -8.017562 -22.202105 -13.611600 -0.485795 -49.755206 -15.506680 12.926757 2.317837 -25.650450 12.817098 -3.373794 -4.635471 -4.759705 20.400305 3.979452 4.314311 60.963386 0.882769 13.500574 -18.578193 21.598796 -3.568774 7.415265 0.948681 -9.415881 
-1.962367 0.628550 0.993342 19.031385 -1.507110 85.941469 3.353459 -11.856422 -11.911268 -10.947479 -28.291916 21.457705 -3.343117 -4.220594 -11.732325 0.000000 -0.000000 0.000000 -3.825357 0.105037 1.406868 -0.989958 9.127196 15.264148 3.795542 -2.535705 -20.801243 0.000000 -0.000000 0.000000 -0.609468 5.476831 11.134597 0.401334 -3.839508 1.841433 1.027654 -0.635815 -0.028645 -2.279921 36.535467 -14.983466 -5.263008 26.719883 -8.125807 -22.053696 -13.138100 -1.575249 -48.990077 -15.885058 11.837216 4.014936 -25.681547 10.810519 -2.496447 -3.989953 -4.497894 20.047926 3.942591 4.833107 59.028369 0.782313 12.323053 -18.702100 22.101319 -3.780532 7.211489 1.236556 -10.653044 
-1.976739 0.633309 0.994085 23.790080 -1.935698 86.094081 3.347453 -12.407911 -14.134998 -11.446043 -26.616320 22.355721 -3.084003 -4.448378 -10.058764 0.000000 -0.000000 0.000000 -3.623430 -0.764035 1.646551 -0.688888 7.249491 14.580453 3.603197 -3.942380 -20.380608 0.000000 -0.000000 0.000000 -0.329872 6.435872 11.849169 -0.022985 -3.016006 1.211771 0.903275 0.087036 -0.047671 -2.246464 35.422875 -14.329858 -5.101312 26.383583 -7.815002 -22.370366 -12.321279 -2.437558 -48.088956 -16.400648 11.007945 5.789736 -26.043452 7.209601 -1.757665 -3.676664 -5.607409 20.094367 3.753346 5.128080 56.690175 1.012696 11.306319 -19.278903 21.809789 -5.206443 6.521214 1.406603 -9.698814 
-1.990847 0.637977 0.994137 28.777399 -1.632746 86.127909 3.579187 -12.626525 -16.326497 -11.181871 -22.954657 23.435670 -2.845913 -3.747199 -9.251322 0.000000 -0.000000 0.000000 -2.308607 -0.996979 1.504097 -0.538696 4.690682 14.672868 2.995201 -6.308028 -20.551429 0.000000 -0.000000 0.000000 0.394057 6.486263 12.240314 -0.168117 -2.465962 1.063552 0.963827 0.124808 0.311721 -2.098093 33.325008 -14.349624 -4.794438 26.073100 -7.354531 -22.844462 -10.932219 -2.751449 -48.302549 -16.542877 9.664409 10.034978 -27.321175 1.729048 -0.307322 -3.297514 -7.175643 19.812319 4.053120 5.026507 53.867241 2.044794 10.543846 -19.405491 21.241015 -5.700162 5.640815 1.276267 -8.505473 
-2.002655 0.641917 0.994155 33.722532 -1.544909 85.701135 2.751096 -12.091660 -17.009948 -9.800538 -19.138751 22.839055 -2.058315 -1.946348 -7.757986 0.000000 -0.000000 0.000000 -1.115075 -1.596983 2.221283 -1.214255 1.826134 13.927039 2.246187 -7.701507 -20.107951 0.000000 -0.000000 0.000000 0.942368 6.034029 13.027191 -0.436805 -2.250195 0.989373 1.099538 0.383166 0.305688 -1.560217 30.820832 -13.274697 -4.474772 25.650143 -7.593900 -23.656020 -9.534683 -3.250198 -48.340663 -16.119549 8.300552 13.722726 -28.330157 -3.390541 -0.063744 -3.134481 -9.188754 19.769337 4.306894 4.578131 50.467066 3.031389 9.636974 -19.307791 20.909599 -5.850231 5.282535 0.764932 -7.006511 
-2.014671 0.644981 0.993711 38.305772 -1.275359 85.958920 2.131621 -11.282446 -17.573837 -8.254671 -16.343536 21.153049 -1.831665 -0.618582 -6.660645 0.000000 -0.000000 0.000000 0.490741 -2.424008 2.177816 -2.020969 -0.145226 12.682138 1.234980 -9.936449 -19.587727 0.000000 -0.000000 0.000000 1.331011 5.439140 12.857462 -0.489871 -1.991956 0.729939 1.271984 0.179826 0.718632 -1.217281 28.326417 -12.442791 -4.367336 25.010818 -7.647300 -24.148719 -7.726262 -3.255207 -48.446815 -15.343401 7.263101 16.916785 -29.279197 -7.598238 1.394181 -3.220850 -11.915678 19.643463 4.165035 3.919126 47.674115 5.021405 8.873277 -19.673843 20.305764 -6.639555 3.112751 0.069937 -4.912161 
-2.025554 0.648900 0.993328 43.106348 -1.608960 86.188054 0.778311 -10.464652 -17.977852 -7.076776 -14.046789 19.457123 -1.933202 0.328913 -5.957222 0.000000 -0.000000 0.000000 1.283521 -3.185249 1.657045 -2.788807 -2.319573 12.108054 0.370195 -12.379443 -19.934947 0.000000 -0.000000 0.000000 0.915883 4.891454 12.990696 -0.389794 -2.162843 0.043231 1.453459 -0.022179 1.170191 -0.761277 26.524165 -11.956860 -4.222963 23.916222 -6.939375 -23.974111 -5.879931 -3.547161 -48.880297 -14.628591 6.445486 18.327277 -29.104074 -9.174061 3.468936 -2.255788 -12.905843 19.565368 3.502891 2.732660 45.568663 6.992307 8.136767 -20.596071 19.970318 -7.724247 0.311922 -0.662388 -3.312660 
-2.035008 0.651806 0.993401 47.354898 -1.689057 86.223485 -0.134991 -9.718541 -17.479465 -6.432106 -13.412735 18.006554 -2.670117 0.277840 -7.063291 0.000000 -0.000000 0.000000 2.125779 -3.855496 1.360232 -3.539313 -4.225491 11.693393 -0.195136 -14.221652 -19.794792 0.000000 -0.000000 0.000000 1.039001 4.421105 12.859481 -0.414059 -2.521214 0.122788 1.335163 -0.176311 1.265207 -0.178130 24.986752 -11.048158 -4.241548 22.506557 -6.880064 -23.767688 -4.912405 -3.143163 -48.673207 -13.295658 5.538564 18.959835 -27.290456 -9.297584 4.247088 -2.367665 -13.855872 19.613474 3.471200 1.898475 44.597686 8.993725 7.029034 -22.551068 19.482825 -9.659553 -2.469748 -0.606302 -2.730098 
-2.043168 0.654809 0.993765 51.185184 -1.865230 86.142359 -0.795170 -9.232802 -17.071775 -6.685122 -12.735089 18.385046 -3.193973 0.445704 -9.504389 0.000000 -0.000000 0.000000 2.599542 -4.158932 1.066215 -3.881897 -5.890768 11.552384 -0.294056 -15.682652 -19.725048 0.000000 -0.000000 0.000000 1.226664 4.279926 12.933674 -0.478175 -2.667127 -0.159549 1.026598 -0.379275 1.677179 0.432371 23.357536 -10.460264 -4.374135 20.549350 -6.518557 -23.423696 -4.080703 -3.163596 -48.436445 -12.040997 4.639004 18.213784 -24.527865 -8.168770 5.129919 -2.439572 -12.200422 19.556398 3.251045 0.892123 44.350922 10.770653 5.901254 -24.307828 19.228667 -12.883277 -6.172699 -0.300174 -2.936165 
-2.050582 0.657526 0.994133 54.283068 -2.168338 85.897057 -1.475417 -8.159476 -16.249302 -5.928648 -10.380850 19.341549 -3.005952 2.120583 -11.685004 0.000000 -0.000000 0.000000 2.744669 -4.451307 0.635808 -4.252457 -7.243485 12.039727 -0.688337 -17.095161 -19.541287 0.000000 -0.000000 0.000000 1.147024 4.583385 12.963969 -0.677952 -2.475137 -0.281888 0.758832 -0.161224 2.094481 1.087857 21.759057 -9.916058 -3.949304 18.595445 -6.167660 -22.883517 -3.901750 -3.126720 -48.247076 -11.036573 3.818931 16.132373 -20.543293 -6.299642 4.632361 -2.192216 -11.132774 19.577236 3.159794 -0.017594 44.923036 11.770703 5.118034 -26.264609 19.640660 -16.801597 -6.698397 -0.394341 -5.654706 
